<svg width="267" height="238" viewBox="0 0 267 238" fill="none" xmlns="http://www.w3.org/2000/svg">
<path d="M161.992 101.442C161.992 101.442 148.73 127.398 135.246 145.329C129.882 152.459 124.492 158.314 119.877 160.767C115.373 163.153 111.548 166.867 108.388 170.987C100.212 181.641 96.4287 194.991 96.4287 194.991L61.9632 144.001C61.9632 144.001 63.1412 94.1497 67.2709 85.8141C73.2993 73.6562 76.2095 49.1099 78.5377 44.217C80.2561 40.5845 85.1619 21.8665 85.6331 20.484C85.841 19.8876 87.4762 18.9795 89.5966 18.9795C91.3011 18.9795 94.1836 20.5924 94.9181 23.8996C98.6044 40.6116 94.1698 51.631 94.2114 52.1325C95.514 64.9816 91.606 74.5101 94.3499 77.0311C94.4469 77.126 94.641 77.0853 94.9043 76.9091C99.6576 73.9272 129.148 31.8829 132.779 30.9747C136.631 29.9989 161.992 101.442 161.992 101.442Z" fill="#FFDB7D"/>
<path d="M106.809 184.88C106.809 184.88 106.337 207.542 104.993 238.066H18.0742C37.9331 196.631 55.2143 161.743 55.2143 161.743C55.2143 161.743 104.716 163.221 106.809 184.88Z" fill="#D2E3FC"/>
<path d="M192.318 13.1601L181.648 28.4625L171.171 43.4803C170.533 44.2394 169.799 44.4969 168.995 44.4156C166.487 44.1851 163.368 40.634 160.943 38.6687L160.694 38.4654C157.493 35.8766 157.049 31.214 159.696 28.083L175.702 9.1617L180.456 3.55036C183.103 0.419392 187.87 -0.0143318 191.071 2.57448L191.321 2.77778C194.522 5.35304 194.965 10.0292 192.318 13.1601Z" fill="#FDCD51"/>
<path d="M181.449 28.8875L170.972 43.9053C170.335 44.6643 169.6 44.9218 168.796 44.8405L175.504 9.60022C175.532 9.78998 176.668 25.6074 181.449 28.8875Z" fill="#FDCD51"/>
<path d="M135.246 145.33C129.882 152.459 124.492 158.314 119.877 160.768C115.373 163.153 111.548 166.867 108.388 170.987C104.758 169.334 100.614 167.382 96.5673 165.471C91.6338 163.126 91.4536 156.281 96.2763 153.747C96.3178 153.719 96.3733 153.692 96.4149 153.665C100.933 151.131 105.575 142.199 105.575 142.199L135.246 145.33Z" fill="#FDCD51"/>
<path d="M85.4114 21.2429L82.612 32.2758C82.612 32.2758 85.0511 33.2517 86.617 32.4927C88.183 31.7337 89.4857 21.8393 85.4114 21.2429Z" fill="#FCE29E"/>
<path d="M165.72 150.534H105.672C99.7685 150.534 94.932 145.804 94.932 140.03V10.9421C94.932 5.16808 99.7685 0.437744 105.672 0.437744H165.72C171.624 0.437744 176.46 5.16808 176.46 10.9421V140.03C176.46 145.804 171.624 150.534 165.72 150.534Z" fill="#2B478B"/>
<path d="M172.427 11.9315V138.024C172.427 142.307 168.88 145.804 164.528 145.804H106.864C102.526 145.804 98.9648 142.307 98.9648 138.024V11.9315C98.9648 7.64841 102.512 4.15149 106.864 4.15149H164.528C168.866 4.15149 172.427 7.66196 172.427 11.9315Z" fill="#C0D8FB"/>
<path d="M164.528 4.15149L107.585 145.817H106.878C102.54 145.817 98.9786 142.32 98.9786 138.037V11.9315C98.9786 7.64841 102.526 4.15149 106.878 4.15149H164.528Z" fill="#CBE1FD"/>
<path d="M147.746 8.84131H123.646C121.678 8.84131 120.071 7.26905 120.071 5.34438V4.80222C120.071 2.87756 121.678 1.3053 123.646 1.3053H147.746C149.714 1.3053 151.321 2.87756 151.321 4.80222V5.34438C151.321 7.2826 149.714 8.84131 147.746 8.84131Z" fill="#2B478B"/>
<path d="M186.812 71.3655L185.218 71.9619L174.52 75.9332C174.27 76.028 174.021 76.1094 173.758 76.1636C170.21 77.0581 166.441 75.2148 165.11 71.7992L164.958 71.3926C163.53 67.733 165.429 63.5855 169.185 62.1895L179.162 58.4757L179.883 58.2046L181.477 57.6082C185.218 56.2122 189.459 58.0691 190.873 61.7422L191.025 62.1488C192.466 65.8355 190.568 69.983 186.812 71.3655Z" fill="#FDCD51"/>
<path d="M178.123 71.6094C176.335 72.2735 173.106 73.4527 171.374 73.6832C170.889 73.7509 169.988 73.4934 169.143 72.5853C168.644 72.0431 168.159 71.2706 167.799 70.2133C167.632 69.7119 167.494 69.2104 167.438 68.6953C167.369 68.0989 167.383 67.489 167.494 66.8926C167.591 66.3505 167.965 65.8625 168.519 65.605C168.519 65.605 168.519 65.605 168.533 65.605C170.376 64.7511 172.857 63.6939 175.019 63.1111C176.515 62.7044 178.04 63.355 178.511 64.6427L178.733 65.239L179.883 68.3158C180.354 69.6034 179.578 71.0672 178.123 71.6094Z" fill="#FCE29E"/>
<path d="M178.123 71.6094C176.335 72.2736 173.106 73.4527 171.374 73.6832C170.889 73.7509 169.988 73.4934 169.143 72.5853C169.06 72.382 168.977 72.1651 168.894 71.9347C168.727 71.4332 168.589 70.9317 168.533 70.4167C168.464 69.8203 168.478 69.2104 168.589 68.614C168.686 68.0718 169.06 67.5839 169.614 67.3264C169.614 67.3264 169.614 67.3264 169.628 67.3264C171.471 66.4725 173.952 65.4153 176.114 64.8324C177.07 64.5749 178.04 64.7511 178.747 65.2391L179.897 68.3158C180.354 69.6034 179.578 71.0673 178.123 71.6094Z" fill="#FDCD51"/>
<path d="M181.962 86.0851L173.702 88.2808C171.194 88.945 168.589 87.4947 167.896 85.0414L167.646 84.1333C166.967 81.68 168.45 79.1319 170.958 78.4542L179.218 76.2585C181.726 75.5943 184.331 77.0446 185.024 79.4979L185.274 80.406C185.953 82.8592 184.47 85.4209 181.962 86.0851Z" fill="#FDCD51"/>
<path d="M177.499 85.692C175.989 86.0851 173.245 86.7899 171.804 86.8577C171.277 86.8848 170.238 86.4511 169.559 85.1092C169.392 84.7839 169.254 84.4044 169.143 83.9707C169.046 83.5776 168.963 83.1846 168.963 82.7779C168.949 82.3036 169.018 81.8427 169.143 81.3954C169.268 80.9888 169.614 80.6364 170.071 80.4738C170.071 80.4738 170.071 80.4738 170.085 80.4738C171.651 79.9316 173.772 79.281 175.601 78.9693C176.862 78.7524 178.054 79.3488 178.359 80.3653L178.567 81.0973L179.204 83.2794C179.481 84.296 178.733 85.3668 177.499 85.692Z" fill="#FDCD51"/>
<path d="M177.499 85.6918C175.989 86.0848 173.245 86.7896 171.804 86.8574C171.277 86.8845 170.238 86.4508 169.559 85.109C169.462 84.743 169.406 84.377 169.392 83.9975C169.378 83.5367 169.448 83.0623 169.572 82.615C169.697 82.2084 170.044 81.856 170.501 81.6934C170.501 81.6934 170.501 81.6934 170.515 81.6934C172.081 81.1512 174.201 80.5006 176.03 80.1889C177.07 80.0127 178.081 80.3922 178.553 81.097L179.19 83.2792C179.481 84.2957 178.733 85.3665 177.499 85.6918Z" fill="#FCE29E"/>
<path d="M46.7469 178.93C46.7469 178.93 63.7371 194.842 75.184 200.982L83.8593 194.964V203.842C83.8593 203.842 100.919 206.797 106.296 203.842V179.648L58.4017 156.173L46.7469 178.93Z" fill="#C1DAFF"/>
<path d="M109.913 201.931C103.316 203.259 89.0977 198.19 89.0977 198.19L91.3981 176.517L75.3226 194.517C67.1462 191.535 54.355 183.769 46.7607 178.943C42.9774 176.531 40.4829 174.85 40.4829 174.85C51.2092 157.975 61.9909 142.185 61.9909 142.185C65.1506 148.379 72.6479 153.76 80.7689 158.057C94.2668 165.213 109.511 169.388 109.511 169.388C109.497 182.264 109.913 201.931 109.913 201.931Z" fill="#DCEAFF"/>
<path d="M186.572 55.966C186.517 55.9932 186.461 56.0067 186.392 56.0203L175.569 58.7311C170.815 59.9238 165.895 57.4028 164.634 53.1333L163.997 50.9511C162.791 46.8442 165.383 42.5612 169.803 41.1651L173.379 40.2706L180.627 38.4543C185.38 37.2616 190.3 39.7826 191.561 44.0521L192.198 46.2343C193.39 50.2869 190.882 54.5158 186.572 55.966Z" fill="#FDCD51"/>
<path d="M181.625 53.0113L176.372 55.329C176.358 55.329 176.358 55.329 176.345 55.3425C176.137 55.3968 175.915 55.4374 175.707 55.4645C175.624 55.4781 175.527 55.4916 175.444 55.4916C175.402 55.4916 175.375 55.4916 175.333 55.4916C174.751 55.4781 174.363 54.8682 174.612 54.3396C175.111 53.2823 175.25 52.0625 174.903 50.8562L174.779 50.4089V50.3953L174.377 48.9315C174.058 47.7659 173.365 46.79 172.464 46.0852C172.353 46.0039 172.243 45.9225 172.132 45.8412C171.092 45.1364 171.356 43.5371 172.575 43.2118C172.589 43.2118 172.603 43.2118 172.603 43.1982L178.368 42.3443C179.795 41.9648 181.167 43.0356 181.555 44.4316L182.013 46.0987L182.997 49.6499C183.385 51.0595 183.038 52.6317 181.625 53.0113Z" fill="#FDCD51"/>
<path d="M181.625 53.0114L176.372 55.3292C176.359 55.3292 176.359 55.3291 176.345 55.3427C176.22 55.3698 175.832 55.424 175.333 55.5054C174.751 55.4918 174.363 54.8819 174.612 54.3533C175.111 53.2961 175.25 52.0762 174.903 50.8699L174.779 50.4226V50.4091L174.377 48.9452C174.058 47.7796 173.365 46.8037 172.464 46.0989C172.644 45.8278 172.922 45.6245 173.296 45.5297C173.31 45.5297 173.324 45.5296 173.324 45.5161L179.089 44.6622C180.294 44.3369 181.458 45.0553 182.027 46.1125L183.01 49.6636C183.385 51.0597 183.038 52.6319 181.625 53.0114Z" fill="#FCE29E"/>
<path d="M94.9321 110.943C94.9321 110.943 92.5762 90.7885 90.4004 86.8578C88.2247 82.9272 86.3815 75.0523 89.7352 69.2106C93.075 63.3688 94.2391 52.119 94.2391 52.119C95.5418 64.9682 91.6338 74.4966 94.3777 77.0176C94.4747 77.1125 94.6687 77.0719 94.9321 76.8957V110.943Z" fill="#FDCD51"/>
<path d="M65.6772 78.1154H147.663C150.504 78.1154 152.818 75.8655 152.818 73.0734V40.9641C152.818 38.1855 150.517 35.922 147.663 35.922H65.6772C62.8363 35.922 60.5219 38.172 60.5219 40.9641V73.0734C60.5219 75.8655 62.8363 78.1154 65.6772 78.1154Z" fill="#699DEE"/>
<path d="M148.231 30.5818H116.149C113.765 30.5818 111.839 28.6978 111.839 26.3665V20.4163C111.839 18.0851 113.765 16.201 116.149 16.201H148.231C150.614 16.201 152.541 18.0851 152.541 20.4163V26.3665C152.541 28.6978 150.614 30.5818 148.231 30.5818Z" fill="#9ABFF6"/>
<path d="M146.831 136.045H109.83C106.975 136.045 104.674 133.782 104.674 131.003V123.359C104.674 120.566 106.989 118.317 109.83 118.317H146.817C149.672 118.317 151.973 120.58 151.973 123.359V131.003C151.986 133.782 149.672 136.045 146.831 136.045Z" fill="#9ABFF6"/>
<path d="M161.202 110.943H126.252C122.842 110.943 120.071 108.232 120.071 104.898V91.5204C120.071 88.1861 122.842 85.4753 126.252 85.4753H161.202C164.611 85.4753 167.383 88.1861 167.383 91.5204V104.898C167.397 108.232 164.625 110.943 161.202 110.943Z" fill="#FDCD51"/>
<path d="M260.011 238.079H196.25C193.187 236.073 177.319 225.488 170.75 217.586C169.365 215.918 164.265 201.483 160.357 189.786C157.918 182.467 155.922 176.219 155.59 174.782C155.479 174.281 155.396 173.291 155.354 171.949V171.936C155.188 167.151 155.409 157.908 155.645 150.575V150.534V150.439C155.659 150.114 155.673 149.802 155.673 149.491V149.477C155.673 149.45 155.673 149.409 155.673 149.382C155.714 148.108 155.756 146.902 155.797 145.817C155.894 143.093 155.978 141.033 156.019 140.233L156.033 139.854C156.13 139.799 159.207 138.2 163.295 141.087C164.279 141.792 165.193 143.473 166.039 145.668C166.579 147.078 167.078 148.691 167.535 150.385C169.323 156.918 170.612 164.739 171.291 166.826C172.4 170.215 185.426 185.083 186.244 186.005C186.258 186.018 186.272 186.032 186.286 186.046V162.557L176.446 136.804L172.4 126.232L170.376 120.919C170.376 120.919 167.258 115.917 164.653 109.899C163.503 107.27 162.463 104.437 161.812 101.753C161.659 101.116 161.521 100.479 161.424 99.8559C161.036 97.5789 161.008 95.478 161.549 93.7702C162.505 90.7206 164.639 90.1377 166.288 90.2055C166.454 90.2055 166.621 90.2191 166.787 90.2462C166.953 90.2597 167.106 90.3004 167.258 90.341C167.549 90.4224 167.826 90.5308 168.076 90.6799C168.492 90.9239 168.866 91.2492 169.143 91.6558C169.143 91.6558 170.529 93.4313 172.4 95.8168C173.633 97.3891 175.06 99.2189 176.446 100.994C178.899 104.153 181.172 107.094 181.809 107.948C185.191 112.61 194.309 127.804 194.309 127.804L204.98 128.238C206.671 128.306 208.279 128.97 209.512 130.095C213.309 133.565 221.485 141.06 222.497 142.171C222.497 142.537 228.858 145.533 233.764 148.189C237.27 149.64 243.95 154.79 243.95 154.79C245.336 155.983 246.389 157.176 246.915 158.314C249.202 163.18 255.41 205.536 258.376 226.477C259.346 233.213 259.97 237.727 260.011 238.079Z" fill="#FFDB7D"/>
<path d="M194.323 127.804C194.323 127.804 204.204 143.581 205.521 144.299C206.824 145.004 211.923 146.007 212.505 144.299C213.074 142.592 194.323 127.804 194.323 127.804Z" fill="#FDCD51"/>
<path d="M244.005 154.844C243.991 154.831 243.977 154.817 243.95 154.804C243.95 154.804 237.27 149.653 233.764 148.203C229.26 145.763 223.523 143.039 222.622 142.32C223.675 143.486 231.034 151.646 233.861 152.256C236.355 152.798 242.01 154.302 244.005 154.844Z" fill="#FDCD51"/>
<path d="M186.299 186.046V162.557C186.299 162.557 192.009 171.895 192.439 177.005C192.882 182.128 190.069 190.423 186.299 186.046Z" fill="#FDCD51"/>
<path d="M165.609 99.8696C164.778 98.4735 163.281 95.9389 162.768 94.5157C162.629 94.1091 162.643 93.3094 163.142 92.4555C163.447 91.9405 163.918 91.4119 164.639 90.9375C164.972 90.7206 165.318 90.5173 165.692 90.3818C166.122 90.2327 166.579 90.1514 167.036 90.1378C167.452 90.1378 167.882 90.3682 168.187 90.7884C169.171 92.198 170.432 94.1227 171.277 95.8576C171.873 97.0639 171.679 98.4464 170.82 99.0563L170.418 99.341L168.367 100.805C167.508 101.428 166.288 101.008 165.609 99.8696Z" fill="#FFD3B6"/>
<path d="M165.609 99.8697C164.778 98.4736 163.281 95.939 162.768 94.5159C162.629 94.1092 162.643 93.3096 163.142 92.4557C163.281 92.3472 163.419 92.2388 163.572 92.1439C163.904 91.9271 164.251 91.7237 164.625 91.5882C165.055 91.4391 165.512 91.3578 165.969 91.3442C166.385 91.3442 166.815 91.5747 167.12 91.9948C168.104 93.4044 169.365 95.3291 170.21 97.064C170.584 97.8366 170.653 98.6769 170.418 99.3411L168.367 100.805C167.508 101.428 166.288 101.008 165.609 99.8697Z" fill="#FCE29E"/>
<path d="M221.278 39.6763H207.918C204.398 39.6763 201.53 36.8571 201.53 33.4279V22.6661C201.53 19.2234 204.412 16.4177 207.918 16.4177H221.278C224.798 16.4177 227.666 19.2369 227.666 22.6661V33.4144C227.68 36.8571 224.798 39.6763 221.278 39.6763Z" fill="#DFEBFD"/>
<path d="M6.3501 100.276H46.3865C49.5739 100.276 52.1932 102.824 52.1932 105.955V123.142C52.1932 126.015 49.7957 128.36 46.8577 128.36H45.8322L47.7585 136.33L35.6464 128.36H6.0175C2.83011 128.36 0.224756 125.812 0.224756 122.694V106.308C0.210898 102.987 2.98255 100.276 6.3501 100.276Z" fill="#DFEBFD"/>
<path d="M5.28307 112.746H47.0241C47.5923 112.746 48.0635 112.285 48.0635 111.729C48.0635 111.174 47.5923 110.713 47.0241 110.713H5.28307C4.71488 110.713 4.2437 111.174 4.2437 111.729C4.2437 112.299 4.71488 112.746 5.28307 112.746Z" fill="#CBE1FD"/>
<path d="M5.28307 117.273H47.0241C47.5923 117.273 48.0635 116.812 48.0635 116.256C48.0635 115.701 47.5923 115.24 47.0241 115.24H5.28307C4.71488 115.24 4.2437 115.701 4.2437 116.256C4.2437 116.826 4.71488 117.273 5.28307 117.273Z" fill="#CBE1FD"/>
<path d="M5.28307 121.8H47.0241C47.5923 121.8 48.0635 121.339 48.0635 120.784C48.0635 120.228 47.5923 119.767 47.0241 119.767H5.28307C4.71488 119.767 4.2437 120.228 4.2437 120.784C4.2437 121.353 4.71488 121.8 5.28307 121.8Z" fill="#CBE1FD"/>
<path d="M28.0243 105.725H45.7491C46.4281 105.725 46.9824 105.183 46.9824 104.519C46.9824 103.855 46.4281 103.312 45.7491 103.312H28.0243C27.3453 103.312 26.791 103.855 26.791 104.519C26.791 105.183 27.3453 105.725 28.0243 105.725Z" fill="#CBE1FD"/>
<path d="M12.7941 105.725H23.465C24.0055 105.725 24.4351 105.291 24.4351 104.776V104.275C24.4351 103.746 23.9916 103.326 23.465 103.326H12.7941C12.2537 103.326 11.8241 103.76 11.8241 104.275V104.776C11.8241 105.291 12.2675 105.725 12.7941 105.725Z" fill="#CBE1FD"/>
<path d="M207.53 108.992L232.725 117.043L217.633 102.662L216.109 106.186L209.623 106.213L207.53 108.992Z" fill="#9EC3F6"/>
<path d="M232.725 117.042L213.171 102.499L192.286 97.8363L232.725 117.042Z" fill="white"/>
<path d="M217.633 102.662L232.725 117.042L222.663 96.9012L217.633 102.662Z" fill="white"/>
<path d="M59.0392 17.2447L35.494 20.5248L51.1261 10.1154L51.9161 13.4496L57.6395 14.4662L59.0392 17.2447Z" fill="#9EC3F6"/>
<path d="M35.494 20.5247L55.0896 10.6438L74.2832 9.69507L35.494 20.5247Z" fill="white"/>
<path d="M51.1261 10.1153L35.494 20.5248L47.5923 4.24646L51.1261 10.1153Z" fill="white"/>
<path d="M95.999 55.4396C95.999 58.4485 94.9597 61.2135 93.2274 63.4228C92.6453 64.1548 91.994 64.8325 91.2734 65.4288C88.9452 67.367 85.9241 68.5327 82.6258 68.5327C79.6325 68.5327 76.8747 67.5704 74.6435 65.9439C73.6596 65.2255 72.7865 64.3852 72.0381 63.4364C70.292 61.2271 69.2665 58.4621 69.2665 55.4531C69.2665 48.2288 75.2533 42.3735 82.6397 42.3735C90.0261 42.3735 95.999 48.2153 95.999 55.4396Z" fill="white"/>
<path d="M87.989 61.6202C87.9474 61.5795 87.9197 61.5389 87.8781 61.5118C87.7257 61.3898 87.5732 61.322 86.9496 61.2272C86.6309 61.1729 86.2013 61.1187 85.5777 61.0374C85.5777 61.0374 85.4391 61.0238 85.3698 61.0238C85.3282 61.0238 85.2728 61.0103 85.2173 61.0103C85.0372 60.9154 84.9956 60.197 84.9956 59.438C84.9956 59.3838 84.9956 59.3296 84.9956 59.2618C84.9956 58.9772 85.0095 58.6926 85.0233 58.435C85.0233 58.4215 85.0233 58.4079 85.0233 58.3944C85.4114 58.4215 85.6608 58.4215 85.6608 58.4215C86.3676 58.3673 86.811 56.4968 86.9773 54.9923C86.9773 54.9923 87.3238 54.1655 87.3238 53.271C87.3238 52.7695 87.2129 52.2409 86.8665 51.8343C86.6863 51.6174 86.52 51.4819 86.3676 51.4005C86.326 51.3599 86.2844 51.3192 86.229 51.2785C85.5638 50.5602 82.8753 47.8629 81.1014 49.4216C81.0599 49.2726 80.4778 47.5105 77.6923 48.0934C77.8725 48.0798 79.1058 47.9578 79.4662 48.4458C79.4107 48.4187 78.3436 47.9578 77.6507 48.3644C77.332 48.5542 77.138 48.9473 77.0271 49.3539C77.0271 49.3539 77.0271 49.3539 77.0271 49.3674C77.0271 49.3674 77.0271 49.3674 77.0271 49.381V49.3945C77.0132 49.4488 76.9994 49.503 76.9855 49.5572C76.9855 49.5707 76.9855 49.5707 76.9855 49.5843C76.9855 49.5843 76.9855 49.5843 76.9855 49.5979C76.9024 50.018 76.9024 50.4246 76.9578 50.628C77.0687 51.0481 77.8309 52.3222 78.3436 52.3222C78.5377 52.3222 78.7455 52.2544 78.9257 52.1867C78.8425 52.4171 78.7732 52.661 78.7178 52.9321C78.1773 55.4261 79.868 57.3236 80.7411 56.8492C81.3093 56.551 81.7251 57.5134 81.7251 57.5134C81.6419 59.3431 81.1291 60.5223 80.755 60.8205C80.6164 60.8341 80.3254 60.8747 79.9512 60.929C79.9512 60.929 78.6624 61.0645 77.6784 61.4847C77.6646 61.4847 77.6646 61.4847 77.6507 61.4982C77.429 61.5931 77.235 61.688 77.0964 61.7964C77.0271 61.8506 76.9578 61.9184 76.9162 61.9862C76.8885 62.0133 76.8747 62.0404 76.8608 62.0675C76.5282 62.6774 76.1956 63.5991 75.8769 64.6834C77.7616 66.0659 80.1175 66.8792 82.6536 66.8792C85.4529 66.8792 88.0029 65.8897 89.9846 64.2497C89.2778 62.7181 88.4463 61.9455 87.989 61.6202Z" fill="#2B478B"/>
<path d="M120.348 48.8389H105.146C104.619 48.8389 104.189 48.4188 104.189 47.9037V47.4565C104.189 46.9414 104.619 46.5212 105.146 46.5212H120.348C120.875 46.5212 121.304 46.9414 121.304 47.4565V47.9037C121.304 48.4188 120.875 48.8389 120.348 48.8389Z" fill="white"/>
<path d="M120.528 57.188H104.965C104.536 57.188 104.189 56.8491 104.189 56.4289C104.189 56.0088 104.536 55.6699 104.965 55.6699H120.528C120.958 55.6699 121.304 56.0088 121.304 56.4289C121.304 56.8491 120.958 57.188 120.528 57.188Z" fill="white"/>
<path d="M113.641 60.7661H104.785C104.453 60.7661 104.189 60.5086 104.189 60.1833V59.8309C104.189 59.5056 104.453 59.248 104.785 59.248H113.641C113.973 59.248 114.237 59.5056 114.237 59.8309V60.1833C114.237 60.495 113.959 60.7661 113.641 60.7661Z" fill="white"/>
<path d="M131.684 60.7661H117.382C116.981 60.7661 116.634 60.4408 116.634 60.0342V59.98C116.634 59.5869 116.967 59.248 117.382 59.248H131.684C132.086 59.248 132.432 59.5733 132.432 59.98V60.0342C132.419 60.4408 132.086 60.7661 131.684 60.7661Z" fill="white"/>
<path d="M145.043 57.1878H124.644C124.214 57.1878 123.868 56.849 123.868 56.4288C123.868 56.0086 124.214 55.6698 124.644 55.6698H145.043C145.473 55.6698 145.819 56.0086 145.819 56.4288C145.819 56.849 145.473 57.1878 145.043 57.1878Z" fill="white"/>
<path d="M120.528 64.3443H104.965C104.536 64.3443 104.189 64.0055 104.189 63.5853C104.189 63.1651 104.536 62.8263 104.965 62.8263H120.528C120.958 62.8263 121.304 63.1651 121.304 63.5853C121.304 64.0055 120.958 64.3443 120.528 64.3443Z" fill="white"/>
<path d="M145.043 64.3443H124.644C124.214 64.3443 123.868 64.0055 123.868 63.5853C123.868 63.1651 124.214 62.8263 124.644 62.8263H145.043C145.473 62.8263 145.819 63.1651 145.819 63.5853C145.819 64.0055 145.473 64.3443 145.043 64.3443Z" fill="white"/>
<path d="M135.149 48.8389H124.242C123.785 48.8389 123.425 48.473 123.425 48.0393V47.3209C123.425 46.8736 123.799 46.5212 124.242 46.5212H135.149C135.606 46.5212 135.966 46.8872 135.966 47.3209V48.0393C135.966 48.4865 135.592 48.8389 135.149 48.8389Z" fill="white"/>
<path d="M121.387 123.346H110.592C110.218 123.346 109.913 123.047 109.913 122.681V122.37C109.913 122.004 110.218 121.705 110.592 121.705H121.387C121.762 121.705 122.067 122.004 122.067 122.37V122.681C122.08 123.047 121.762 123.346 121.387 123.346Z" fill="#699DEE"/>
<path d="M121.526 127.56H110.467C110.162 127.56 109.913 127.316 109.913 127.018C109.913 126.72 110.162 126.476 110.467 126.476H121.526C121.831 126.476 122.08 126.72 122.08 127.018C122.066 127.316 121.831 127.56 121.526 127.56Z" fill="#699DEE"/>
<path d="M116.62 130.108H110.328C110.093 130.108 109.913 129.919 109.913 129.702V129.444C109.913 129.214 110.107 129.038 110.328 129.038H116.62C116.856 129.038 117.036 129.227 117.036 129.444V129.702C117.05 129.919 116.856 130.108 116.62 130.108Z" fill="#699DEE"/>
<path d="M129.453 130.108H119.281C118.99 130.108 118.754 129.878 118.754 129.593V129.553C118.754 129.268 118.99 129.038 119.281 129.038H129.453C129.744 129.038 129.979 129.268 129.979 129.553V129.593C129.979 129.878 129.744 130.108 129.453 130.108Z" fill="#699DEE"/>
<path d="M138.96 127.56H124.45C124.145 127.56 123.896 127.316 123.896 127.018C123.896 126.72 124.145 126.476 124.45 126.476H138.96C139.265 126.476 139.514 126.72 139.514 127.018C139.5 127.316 139.251 127.56 138.96 127.56Z" fill="#699DEE"/>
<path d="M121.526 132.656H110.467C110.162 132.656 109.913 132.413 109.913 132.114C109.913 131.816 110.162 131.572 110.467 131.572H121.526C121.831 131.572 122.08 131.816 122.08 132.114C122.066 132.413 121.831 132.656 121.526 132.656Z" fill="#699DEE"/>
<path d="M138.96 132.656H124.45C124.145 132.656 123.896 132.413 123.896 132.114C123.896 131.816 124.145 131.572 124.45 131.572H138.96C139.265 131.572 139.514 131.816 139.514 132.114C139.5 132.413 139.251 132.656 138.96 132.656Z" fill="#699DEE"/>
<path d="M131.92 123.345H124.159C123.84 123.345 123.577 123.087 123.577 122.776V122.261C123.577 121.949 123.84 121.691 124.159 121.691H131.92C132.238 121.691 132.502 121.949 132.502 122.261V122.776C132.502 123.087 132.238 123.345 131.92 123.345Z" fill="#699DEE"/>
<path d="M128.552 20.6201H117.757C117.382 20.6201 117.078 20.3219 117.078 19.956V19.6442C117.078 19.2783 117.382 18.9801 117.757 18.9801H128.552C128.926 18.9801 129.231 19.2783 129.231 19.6442V19.956C129.231 20.3219 128.926 20.6201 128.552 20.6201Z" fill="#699DEE"/>
<path d="M128.691 24.8486H117.632C117.327 24.8486 117.077 24.6046 117.077 24.3064C117.077 24.0083 117.327 23.7643 117.632 23.7643H128.691C128.996 23.7643 129.245 24.0083 129.245 24.3064C129.231 24.6046 128.996 24.8486 128.691 24.8486Z" fill="#699DEE"/>
<path d="M123.785 27.3967H117.493C117.258 27.3967 117.077 27.2069 117.077 26.9901V26.7325C117.077 26.5021 117.271 26.3259 117.493 26.3259H123.785C124.02 26.3259 124.201 26.5157 124.201 26.7325V26.9901C124.214 27.2069 124.02 27.3967 123.785 27.3967Z" fill="#699DEE"/>
<path d="M136.618 27.3967H126.446C126.155 27.3967 125.919 27.1663 125.919 26.8816V26.841C125.919 26.5563 126.155 26.3259 126.446 26.3259H136.618C136.909 26.3259 137.144 26.5563 137.144 26.841V26.8816C137.144 27.1663 136.909 27.3967 136.618 27.3967Z" fill="#699DEE"/>
<path d="M146.124 24.8485H131.615C131.31 24.8485 131.06 24.6045 131.06 24.3063C131.06 24.0081 131.31 23.7642 131.615 23.7642H146.124C146.429 23.7642 146.679 24.0081 146.679 24.3063C146.665 24.6045 146.415 24.8485 146.124 24.8485Z" fill="#699DEE"/>
<path d="M139.084 20.6198H131.324C131.005 20.6198 130.742 20.3622 130.742 20.0505V19.5355C130.742 19.2237 131.005 18.9662 131.324 18.9662H139.084C139.403 18.9662 139.666 19.2237 139.666 19.5355V20.0505C139.666 20.3758 139.403 20.6198 139.084 20.6198Z" fill="#699DEE"/>
<path d="M138.1 91.954H126.279C125.864 91.954 125.531 91.6288 125.531 91.2221V90.8697C125.531 90.4631 125.864 90.1378 126.279 90.1378H138.1C138.516 90.1378 138.849 90.4631 138.849 90.8697V91.2221C138.849 91.6152 138.516 91.954 138.1 91.954Z" fill="white"/>
<path d="M138.239 96.576H126.127C125.794 96.576 125.531 96.305 125.531 95.9932C125.531 95.6679 125.808 95.4104 126.127 95.4104H138.239C138.572 95.4104 138.835 95.6815 138.835 95.9932C138.849 96.305 138.572 96.576 138.239 96.576Z" fill="white"/>
<path d="M132.89 99.3544H126.002C125.753 99.3544 125.545 99.151 125.545 98.9071V98.636C125.545 98.392 125.753 98.1887 126.002 98.1887H132.89C133.139 98.1887 133.347 98.392 133.347 98.636V98.9071C133.347 99.151 133.139 99.3544 132.89 99.3544Z" fill="white"/>
<path d="M146.928 99.3545H135.8C135.481 99.3545 135.218 99.097 135.218 98.7852V98.7446C135.218 98.4328 135.481 98.1753 135.8 98.1753H146.928C147.247 98.1753 147.51 98.4328 147.51 98.7446V98.7852C147.51 99.097 147.247 99.3545 146.928 99.3545Z" fill="white"/>
<path d="M157.336 96.5759H141.454C141.122 96.5759 140.858 96.3048 140.858 95.9931C140.858 95.6678 141.136 95.4103 141.454 95.4103H157.336C157.668 95.4103 157.932 95.6814 157.932 95.9931C157.932 96.3048 157.654 96.5759 157.336 96.5759Z" fill="white"/>
<path d="M138.239 102.147H126.127C125.794 102.147 125.531 101.876 125.531 101.564C125.531 101.239 125.808 100.981 126.127 100.981H138.239C138.572 100.981 138.835 101.252 138.835 101.564C138.849 101.876 138.572 102.147 138.239 102.147Z" fill="white"/>
<path d="M157.336 102.147H141.454C141.122 102.147 140.858 101.876 140.858 101.564C140.858 101.239 141.136 100.981 141.454 100.981H157.336C157.668 100.981 157.932 101.252 157.932 101.564C157.932 101.876 157.654 102.147 157.336 102.147Z" fill="white"/>
<path d="M138.239 105.047H126.127C125.794 105.047 125.531 104.776 125.531 104.464C125.531 104.139 125.808 103.881 126.127 103.881H138.239C138.572 103.881 138.835 104.153 138.835 104.464C138.849 104.776 138.572 105.047 138.239 105.047Z" fill="white"/>
<path d="M157.336 105.047H141.454C141.122 105.047 140.858 104.776 140.858 104.464C140.858 104.139 141.136 103.881 141.454 103.881H157.336C157.668 103.881 157.932 104.153 157.932 104.464C157.932 104.776 157.654 105.047 157.336 105.047Z" fill="white"/>
<path d="M149.63 91.9541H141.135C140.789 91.9541 140.498 91.6694 140.498 91.3306V90.7749C140.498 90.436 140.789 90.1514 141.135 90.1514H149.63C149.977 90.1514 150.268 90.436 150.268 90.7749V91.3306C150.268 91.6694 149.977 91.9541 149.63 91.9541Z" fill="white"/>
<path d="M110.093 12.04L109.275 12.6229L108.444 12.0536C108.624 11.7961 108.929 11.6334 109.275 11.6334C109.608 11.6334 109.913 11.7961 110.093 12.04Z" fill="white"/>
<path d="M109.275 10.2238C108.444 10.2238 107.723 10.6304 107.28 11.2403L107.806 11.5927C108.139 11.1454 108.679 10.8472 109.289 10.8472C109.899 10.8472 110.426 11.1319 110.758 11.5927L111.285 11.2267C110.814 10.6168 110.093 10.2238 109.275 10.2238Z" fill="white"/>
<path d="M109.275 7.55359C107.529 7.55359 105.977 8.40748 105.049 9.70866L105.575 10.0611C106.393 8.92253 107.751 8.17707 109.289 8.17707C110.8 8.17707 112.158 8.90898 112.975 10.034L113.488 9.668C112.546 8.39393 111.008 7.55359 109.275 7.55359Z" fill="white"/>
<path d="M109.275 9.01758C108.028 9.01758 106.933 9.61396 106.254 10.5356L106.781 10.888C107.335 10.129 108.25 9.62751 109.275 9.62751C110.301 9.62751 111.202 10.1155 111.756 10.8609L112.269 10.495C111.603 9.61395 110.509 9.01758 109.275 9.01758Z" fill="white"/>
<path d="M104.66 97.1725C104.66 98.3516 105.062 99.4359 105.755 100.303C105.977 100.588 106.24 100.859 106.517 101.09C106.795 101.32 107.1 101.523 107.432 101.699C108.167 102.093 109.012 102.309 109.913 102.309C111.035 102.309 112.075 101.971 112.92 101.388C112.962 101.361 113.003 101.333 113.045 101.293C113.433 101.008 113.779 100.683 114.07 100.303C114.749 99.4359 115.165 98.3516 115.165 97.1725C115.165 94.3397 112.809 92.0355 109.913 92.0355C107.016 92.0355 104.66 94.3397 104.66 97.1725Z" fill="white"/>
<path d="M111.34 100.466L110.855 100.046C110.814 100.059 110.772 100.059 110.73 100.073C110.647 100.018 110.55 99.9507 110.453 99.8965C110.481 99.7067 110.509 99.5305 110.536 99.3679C110.606 98.8121 110.62 98.4869 110.62 98.4326C110.869 98.4191 111.049 98.392 111.049 98.392C111.534 98.2836 111.562 96.6571 111.451 95.8167C111.548 95.8167 111.631 95.8032 111.714 95.7625C112.075 95.5999 112.102 95.0577 112.102 95.0577C112.102 95.0577 111.992 95.2475 111.839 95.3152C111.839 95.3152 112.449 94.4884 111.742 93.9327C111.035 93.3635 110.315 93.743 109.899 93.7565C108.998 93.8108 108.402 93.865 108.111 94.4478C107.82 95.0171 107.931 96.6029 108.499 97.1857C108.513 97.2399 108.513 97.2941 108.527 97.3483C108.555 97.5516 108.638 97.7278 108.749 97.8634C108.624 98.5411 108.333 99.0561 108.083 99.395C107.903 99.5305 107.751 99.6932 107.598 99.91L107.585 99.9236C107.307 100.303 107.086 100.805 106.906 101.374C106.906 101.374 106.906 101.374 106.906 101.387C107.197 101.591 107.529 101.767 107.862 101.902C107.889 101.916 107.903 101.916 107.931 101.93H107.945C107.986 101.943 108.014 101.957 108.056 101.97C108.139 102.011 108.236 102.038 108.319 102.065C108.416 102.092 108.513 102.119 108.61 102.146C108.652 102.16 108.693 102.174 108.749 102.174C108.79 102.187 108.832 102.187 108.873 102.201H108.887C108.915 102.201 108.943 102.214 108.97 102.214C109.026 102.228 109.095 102.241 109.151 102.241C109.164 102.241 109.178 102.241 109.192 102.241C109.234 102.241 109.261 102.255 109.289 102.255C109.345 102.255 109.386 102.268 109.428 102.268C109.483 102.268 109.539 102.282 109.594 102.282C109.649 102.282 109.705 102.282 109.746 102.296C109.802 102.296 109.857 102.296 109.913 102.296C109.968 102.296 110.024 102.296 110.093 102.296H110.107C110.121 102.296 110.135 102.296 110.148 102.296C110.176 102.296 110.204 102.296 110.232 102.296C110.232 102.296 110.232 102.296 110.245 102.296C110.301 102.296 110.356 102.296 110.412 102.282C111.118 102.214 111.797 102.011 112.393 101.699C112.075 101.184 111.687 100.791 111.34 100.466Z" fill="#699DEE"/>
<path d="M156.227 127.032C156.227 128.225 156.643 129.309 157.322 130.19C157.544 130.475 157.807 130.746 158.098 130.976C159.013 131.735 160.218 132.196 161.521 132.196C162.699 132.196 163.794 131.816 164.681 131.166C165.069 130.881 165.415 130.542 165.706 130.176C166.399 129.309 166.801 128.211 166.801 127.018C166.801 124.158 164.431 121.841 161.507 121.841C158.583 121.841 156.227 124.172 156.227 127.032Z" fill="white"/>
<path d="M164.209 129.959C164.209 129.946 164.195 129.932 164.182 129.919C164.154 129.892 164.126 129.865 164.098 129.837C164.029 129.783 163.946 129.743 163.835 129.702C163.835 129.702 163.835 129.702 163.821 129.702C163.364 129.512 162.754 129.444 162.754 129.444C162.588 129.417 162.449 129.404 162.38 129.39C162.2 129.255 161.964 128.699 161.923 127.845C161.923 127.845 162.117 127.398 162.38 127.533C162.796 127.75 163.572 126.869 163.322 125.704C163.295 125.582 163.267 125.46 163.225 125.365C163.309 125.405 163.406 125.432 163.503 125.432C163.738 125.432 164.098 124.836 164.154 124.646C164.209 124.443 164.154 123.792 163.821 123.603C163.503 123.413 163.004 123.63 162.976 123.643C163.142 123.426 163.697 123.467 163.794 123.481C162.505 123.223 162.228 124.036 162.214 124.104C161.396 123.372 160.135 124.633 159.83 124.972C159.802 124.985 159.789 125.012 159.761 125.026C159.692 125.066 159.608 125.134 159.525 125.229C159.359 125.419 159.317 125.663 159.317 125.907C159.317 126.327 159.484 126.707 159.484 126.707C159.553 127.411 159.761 128.279 160.093 128.306C160.093 128.306 160.204 128.306 160.384 128.292C160.384 128.306 160.384 128.306 160.384 128.319C160.384 128.441 160.398 128.577 160.398 128.699V128.78C160.398 129.133 160.371 129.472 160.301 129.512C160.274 129.512 160.246 129.512 160.232 129.512C160.204 129.512 160.135 129.526 160.135 129.526C159.844 129.566 159.636 129.594 159.498 129.621C159.207 129.661 159.137 129.702 159.068 129.756C159.054 129.77 159.04 129.783 159.013 129.81C158.805 129.973 158.417 130.325 158.07 131.017C158.999 131.776 160.19 132.237 161.493 132.237C162.671 132.237 163.766 131.857 164.653 131.206C164.528 130.664 164.362 130.244 164.209 129.959Z" fill="#FDCD51"/>
<path d="M156.227 23.0862C156.227 24.2789 156.643 25.3633 157.322 26.2443C157.544 26.5289 157.807 26.8 158.098 27.0304C159.013 27.7894 160.218 28.2503 161.521 28.2503C162.699 28.2503 163.794 27.8707 164.681 27.2201C165.069 26.9355 165.415 26.5967 165.706 26.2307C166.399 25.3633 166.801 24.2654 166.801 23.0726C166.801 20.2127 164.431 17.895 161.507 17.895C158.583 17.895 156.227 20.2263 156.227 23.0862Z" fill="white"/>
<path d="M164.209 26.014C164.209 26.0004 164.196 25.9869 164.182 25.9733C164.154 25.9462 164.126 25.9191 164.099 25.892C164.029 25.8378 163.946 25.7971 163.835 25.7565C163.835 25.7565 163.835 25.7565 163.821 25.7565C163.364 25.5667 162.754 25.4989 162.754 25.4989C162.588 25.4718 162.449 25.4583 162.38 25.4447C162.339 25.4041 162.297 25.3498 162.242 25.2685C162.089 25.011 161.95 24.5366 161.923 23.8996C161.923 23.8996 162.117 23.4523 162.38 23.5878C162.796 23.8047 163.572 22.9237 163.322 21.7581C163.295 21.6361 163.267 21.5141 163.225 21.4192C163.309 21.4599 163.406 21.487 163.503 21.487C163.738 21.487 164.099 20.8906 164.154 20.7008C164.209 20.4975 164.154 19.8469 163.821 19.6572C163.503 19.4674 163.004 19.6843 162.976 19.6979C163.142 19.481 163.697 19.5217 163.794 19.5352C162.505 19.2777 162.228 20.0909 162.214 20.1587C161.396 19.4268 160.135 20.6873 159.83 21.0261C159.802 21.0397 159.789 21.0668 159.761 21.0804C159.692 21.121 159.608 21.1888 159.525 21.2837C159.359 21.4734 159.317 21.7174 159.317 21.9614C159.317 22.3815 159.484 22.761 159.484 22.761C159.553 23.4659 159.761 24.3333 160.093 24.3604C160.093 24.3604 160.204 24.3604 160.384 24.3469C160.384 24.3604 160.384 24.3604 160.384 24.374C160.384 24.496 160.398 24.6315 160.398 24.7535V24.8348C160.398 25.1872 160.371 25.5261 160.301 25.5667C160.274 25.5667 160.246 25.5667 160.232 25.5667C160.204 25.5667 160.135 25.5803 160.135 25.5803C159.844 25.6209 159.636 25.648 159.498 25.6751C159.207 25.7294 159.137 25.7565 159.068 25.8107C159.054 25.8242 159.04 25.8513 159.013 25.8649C158.805 26.014 158.417 26.38 158.07 27.0712C158.126 27.1119 158.167 27.1525 158.223 27.1932C158.236 27.1932 158.236 27.2067 158.25 27.2067C158.292 27.2339 158.333 27.261 158.375 27.2881C158.403 27.3152 158.43 27.3287 158.458 27.3558C158.486 27.3694 158.514 27.3965 158.541 27.4101C158.583 27.4372 158.624 27.4643 158.666 27.4914C158.694 27.5049 158.721 27.532 158.749 27.5456C158.791 27.5727 158.819 27.5863 158.86 27.6134C158.902 27.6405 158.943 27.654 158.985 27.6811C158.985 27.6811 158.985 27.6811 158.999 27.6811L159.013 27.6947C159.04 27.7082 159.082 27.7353 159.11 27.7489C159.123 27.7489 159.137 27.7625 159.137 27.7625C159.151 27.776 159.179 27.776 159.193 27.7896C159.207 27.8031 159.234 27.8031 159.248 27.8167C159.29 27.8302 159.331 27.8573 159.373 27.8709C159.414 27.8844 159.456 27.9115 159.498 27.9251C159.511 27.9387 159.539 27.9387 159.553 27.9522C159.567 27.9522 159.595 27.9658 159.608 27.9793C159.65 27.9929 159.692 28.0064 159.733 28.02C159.775 28.0335 159.816 28.0471 159.858 28.0606C159.899 28.0742 159.927 28.0877 159.969 28.0877H159.983C160.01 28.0877 160.024 28.1013 160.052 28.1013C160.177 28.142 160.301 28.1691 160.44 28.1826C160.495 28.1962 160.551 28.2097 160.606 28.2097C160.62 28.2097 160.634 28.2097 160.648 28.2097H160.662C160.703 28.2097 160.731 28.2233 160.773 28.2233C160.786 28.2233 160.786 28.2233 160.8 28.2233H160.814C160.856 28.2233 160.883 28.2368 160.911 28.2368H160.925C160.939 28.2368 160.953 28.2368 160.953 28.2368C161.008 28.2368 161.077 28.2504 161.133 28.2504H161.147C161.161 28.2504 161.188 28.2504 161.202 28.2504C161.216 28.2504 161.23 28.2504 161.244 28.2504C161.299 28.2504 161.368 28.2504 161.424 28.2504C162.602 28.2504 163.697 27.8709 164.584 27.2203C164.528 26.7324 164.362 26.2986 164.209 26.014Z" fill="#FDCD51"/>
<path d="M227.985 228.429L208.944 238.079H196.263C193.201 236.073 177.333 225.487 170.764 217.586C169.378 215.918 164.279 201.483 160.371 189.786C160.897 191.345 171.818 214.089 174.922 216.677C178.026 219.266 194.365 234.325 198.869 234.162C203.234 234.013 226.488 228.781 227.93 228.456C227.943 228.442 227.957 228.442 227.985 228.429Z" fill="#FDCD51"/>
<path d="M266.303 238.079H197.635C201.072 236.751 214.252 231.831 227.916 228.456C227.943 228.456 227.957 228.442 227.985 228.442C239.709 225.542 251.794 223.78 258.348 226.423L258.39 226.49L266.303 238.079Z" fill="#D2E3FC"/>
<path d="M155.687 149.382C156.851 148.962 158.472 148.691 159.262 149.978C160.495 151.984 155.922 169.713 155.354 171.936L155.687 149.382Z" fill="#FDCD51"/>
<path d="M156.033 139.854L155.645 150.575C155.645 150.575 157.945 150.941 159.262 149.978C160.579 149.016 159.872 139.718 156.033 139.854Z" fill="#FDCD51"/>
<path d="M109.913 201.931C103.316 203.259 89.0976 198.19 89.0976 198.19L91.3981 176.517L75.3225 194.517C67.1462 191.535 54.355 183.769 46.7607 178.943C66.2315 176.87 80.7688 158.07 80.7688 158.07C94.2668 165.227 109.511 169.401 109.511 169.401C109.497 182.264 109.913 201.931 109.913 201.931Z" fill="#CBE1FD"/>
<path d="M64.6379 182.25C64.6518 180.8 65.8574 179.648 67.3403 179.661C68.8231 179.675 70.001 180.854 69.9872 182.305C69.9733 183.755 68.7676 184.907 67.2848 184.893C65.802 184.866 64.6241 183.687 64.6379 182.25Z" fill="#FFDB7D"/>
</svg>
